<?xml version="1.0" standalone="no"?>
<!DOCTYPE svg PUBLIC "-//W3C//DTD SVG 20010904//EN"
 "http://www.w3.org/TR/2001/REC-SVG-20010904/DTD/svg10.dtd">
<svg version="1.0" xmlns="http://www.w3.org/2000/svg"
 width="1135.000000pt" height="1135.000000pt" viewBox="0 0 1135.000000 1135.000000"
 preserveAspectRatio="xMidYMid meet">
<metadata>
Created by potrace 1.14, written by Peter Selinger 2001-2017
</metadata>
<g transform="translate(0.000000,1135.000000) scale(0.100000,-0.100000)"
fill="#000000" stroke="none">
<path d="M5618 10737 c-382 -312 -736 -870 -856 -1352 -11 -44 -23 -100 -27
-125 -4 -25 -10 -54 -12 -65 -12 -48 -11 -295 1 -370 62 -368 330 -690 541
-651 53 10 110 67 136 134 25 64 35 238 19 327 -17 91 -21 109 -56 230 -38
129 -41 143 -54 220 -8 49 -6 232 3 270 46 194 127 385 197 465 l31 35 -6 -95
c-14 -227 -14 -455 0 -520 26 -124 71 -231 148 -351 98 -154 120 -289 81 -479
-12 -55 -13 -182 -1 -207 11 -24 15 -25 64 -20 75 8 146 50 234 137 129 130
205 264 246 439 58 250 26 476 -105 737 -41 82 -156 288 -192 344 -27 42 -121
236 -153 315 -65 163 -98 275 -131 450 -8 42 -20 141 -19 158 1 29 -33 19 -89
-26z"/>
<path d="M4710 4307 l0 -3585 63 4 c120 6 201 16 297 36 30 6 60 12 65 14 94
19 237 70 351 123 379 179 657 477 777 832 44 130 45 137 65 284 4 33 8 1093
7 2355 -1 2177 -2 2299 -19 2380 -32 151 -80 266 -164 395 -223 344 -646 613
-1117 711 -11 2 -40 7 -65 10 -25 3 -52 7 -60 9 -8 3 -57 7 -107 11 l-93 6 0
-3585z"/>
</g>
</svg>
